<?xml version="1.0" standalone="no"?>
<!DOCTYPE svg PUBLIC "-//W3C//DTD SVG 20010904//EN"
 "http://www.w3.org/TR/2001/REC-SVG-20010904/DTD/svg10.dtd">
<svg version="1.0" xmlns="http://www.w3.org/2000/svg"
 width="700.000000pt" height="700.000000pt" viewBox="0 0 700.000000 700.000000"
 preserveAspectRatio="xMidYMid meet">
<metadata>
Created by potrace 1.11, written by Peter Selinger 2001-2013
</metadata>
<g transform="translate(0.000000,700.000000) scale(0.100000,-0.100000)"
fill="#000000" stroke="none">
<path d="M48 6983 c-14 -9 -31 -27 -37 -40 -8 -17 -11 -291 -11 -883 l0 -860
29 -32 29 -33 856 -3 c737 -2 861 0 891 12 68 29 66 -11 63 941 l-3 855 -28
27 -27 28 -868 2 c-795 2 -869 1 -894 -14z"/>
<path d="M2618 6983 c-54 -34 -52 0 -52 -918 0 -845 0 -855 21 -883 11 -15 29
-32 41 -38 15 -7 285 -10 881 -10 l861 1 26 26 c15 15 29 43 33 65 3 22 6 413
5 869 0 772 -2 832 -18 857 -9 15 -31 31 -48 37 -21 8 -299 11 -877 11 -771
-1 -848 -2 -873 -17z"/>
<path d="M5168 6971 l-33 -29 -3 -856 c-2 -739 0 -860 12 -891 29 -68 -11 -66
942 -63 l856 3 29 33 29 32 0 861 c0 785 -1 863 -17 889 -9 16 -27 33 -40 39
-17 8 -287 11 -883 11 l-860 0 -32 -29z"/>
<path d="M78 4428 c-18 -3 -43 -19 -55 -35 l-23 -28 0 -857 c0 -520 4 -867 10
-882 5 -14 21 -33 37 -43 26 -17 75 -18 884 -18 927 0 889 -2 922 54 15 26 17
107 17 875 0 926 2 895 -57 927 -21 12 -168 14 -864 14 -461 0 -852 -3 -871
-7z"/>
<path d="M2660 4432 c-39 -4 -80 -43 -88 -82 -4 -19 -7 -411 -7 -871 1 -767 3
-839 18 -863 9 -14 27 -31 39 -37 18 -10 228 -12 881 -12 844 0 858 0 885 20
15 11 31 36 37 56 15 55 12 1705 -4 1735 -6 12 -23 30 -37 39 -24 15 -95 17
-863 17 -460 1 -847 0 -861 -2z"/>
<path d="M5214 4430 c-29 -8 -48 -22 -67 -49 -15 -23 -17 -98 -17 -874 0 -928
-2 -896 57 -928 22 -12 169 -14 882 -14 808 0 858 1 884 18 16 10 32 29 37 43
6 15 10 362 10 884 l0 858 -29 31 c-16 17 -37 32 -48 32 -58 5 -1693 4 -1709
-1z"/>
<path d="M64 1860 c-12 -4 -31 -21 -43 -36 l-21 -27 0 -859 c0 -784 1 -862 17
-888 9 -16 27 -33 40 -39 17 -8 287 -11 883 -11 l860 0 32 29 33 29 3 856 c3
952 5 913 -62 941 -30 13 -160 15 -878 14 -464 0 -853 -4 -864 -9z"/>
<path d="M2624 1854 c-62 -30 -59 12 -59 -908 0 -463 1 -851 3 -864 3 -13 18
-36 34 -52 l30 -30 865 0 c856 0 865 0 894 21 17 12 32 34 37 57 5 20 9 415 8
877 -2 922 2 870 -62 900 -28 13 -146 15 -876 15 -737 0 -847 -2 -874 -16z"/>
<path d="M5213 1862 c-23 -3 -72 -47 -74 -66 -1 -6 -3 -391 -4 -856 -2 -643 1
-852 10 -875 27 -69 -30 -65 930 -62 l867 2 29 32 29 33 0 855 c0 926 2 896
-53 927 -17 10 -204 13 -867 13 -465 0 -855 -1 -867 -3z"/>
</g>
</svg>
