<?xml version="1.0" encoding="iso-8859-1"?>
<!-- Generator: Adobe Illustrator 19.0.0, SVG Export Plug-In . SVG Version: 6.00 Build 0)  -->
<svg version="1.1" id="Layer_1" xmlns="http://www.w3.org/2000/svg" xmlns:xlink="http://www.w3.org/1999/xlink" x="0px" y="0px"
	 viewBox="0 0 512 512" style="enable-background:new 0 0 512 512;" xml:space="preserve">
<g>
	<path style="fill:#CFD2CF;" d="M362.362,90.385c-3.346,8.951-15.175,8.951-18.511,0l-15.201-40.713
		C322.055,32,332.163,11.228,349.8,9.03c1.086-0.132,2.189-0.203,3.302-0.203c1.121,0,2.225,0.071,3.31,0.203
		C374.05,11.228,384.148,32,377.554,49.672L362.362,90.385z"/>
	<path style="fill:#BE3A2B;" d="M411.975,179.121c-39.247,8.183-78.495,8.183-117.742,0c-18.52,7.398-35.31,18.194-49.638,31.585
		c43.979,28.239,73.198,77.418,73.198,133.57c0,45.798-19.491,86.952-50.494,115.95c24.77,15.934,54.166,25.291,85.804,25.291
		c87.755,0,158.897-71.141,158.897-158.897C512,259.682,470.554,202.532,411.975,179.121"/>
	<path style="fill:#9C281F;" d="M282.485,185.378L282.485,185.378c47.078,11.767,94.164,11.767,141.241,0v-35.31H282.485V185.378z"
		/>
	<polygon style="fill:#BE3A2B;" points="300.14,150.068 406.071,150.068 406.071,123.585 300.14,123.585 	"/>
	<polygon style="fill:#E4E5E6;" points="335.45,123.585 370.76,123.585 370.76,88.275 335.45,88.275 	"/>
	<path style="fill:#9C281F;" d="M272.226,241.965c-2.534,0-5.041-1.086-6.797-3.178c-3.116-3.743-2.604-9.313,1.13-12.429
		c8.519-7.097,18.988-13.992,27.992-18.414c4.396-2.163,9.684-0.344,11.82,4.025c2.145,4.37,0.344,9.666-4.025,11.811
		c-7.83,3.849-16.975,9.887-24.47,16.137C276.216,241.294,274.221,241.965,272.226,241.965"/>
	<path style="fill:#6CA1E9;" d="M217.768,196.776c-39.247,8.183-78.495,8.183-117.742,0C41.446,220.187,0,277.337,0,344.276
		c0,87.755,71.142,158.897,158.897,158.897s158.897-71.142,158.897-158.897C317.793,277.337,276.348,220.187,217.768,196.776"/>
	<path style="fill:#4F85BF;" d="M35.312,353.102c-4.882,0-8.828-3.955-8.828-8.828c0-50.803,28.301-96.282,73.86-118.678
		c4.423-2.163,9.675-0.344,11.82,4.025c2.145,4.37,0.344,9.666-4.025,11.82c-39.477,19.403-64,58.809-64,102.833
		C44.14,349.147,40.194,353.102,35.312,353.102"/>
	<path style="fill:#CFD2CF;" d="M168.155,108.04c-3.346,8.951-15.175,8.951-18.511,0l-15.201-40.713
		c-6.594-17.673,3.513-38.444,21.151-40.642c1.086-0.132,2.189-0.203,3.301-0.203c1.121,0,2.225,0.071,3.31,0.203
		c17.638,2.198,27.736,22.969,21.142,40.642L168.155,108.04z"/>
	<path style="fill:#4F85BF;" d="M88.278,203.033L88.278,203.033c47.078,11.767,94.164,11.767,141.241,0v-35.31H88.278V203.033z"/>
	<polygon style="fill:#6CA1E9;" points="105.933,167.723 211.864,167.723 211.864,141.24 105.933,141.24 	"/>
	<polygon style="fill:#E4E5E6;" points="141.243,141.24 176.553,141.24 176.553,105.93 141.243,105.93 	"/>
</g>
<g>
</g>
<g>
</g>
<g>
</g>
<g>
</g>
<g>
</g>
<g>
</g>
<g>
</g>
<g>
</g>
<g>
</g>
<g>
</g>
<g>
</g>
<g>
</g>
<g>
</g>
<g>
</g>
<g>
</g>
</svg>
