<?xml version="1.0" encoding="iso-8859-1"?>
<!-- Generator: Adobe Illustrator 19.0.0, SVG Export Plug-In . SVG Version: 6.00 Build 0)  -->
<svg version="1.1" id="Layer_1" xmlns="http://www.w3.org/2000/svg" xmlns:xlink="http://www.w3.org/1999/xlink" x="0px" y="0px"
	 viewBox="0 0 512.001 512.001" style="enable-background:new 0 0 512.001 512.001;" xml:space="preserve">
<g transform="translate(-1)">
	<path style="fill:#559E62;" d="M317.954,194.652c-41.115,8.485-80.786,8.485-121.902,0
		C135.371,218.89,92.427,278.09,92.427,347.429c0,90.889,73.682,164.571,164.571,164.571c90.898,0,164.571-73.682,164.571-164.571
		C421.57,278.09,378.635,218.89,317.954,194.652"/>
	<path style="fill:#4C8056;" d="M169.744,263.142c-2.441,0-4.864-0.969-6.665-2.889c-3.456-3.685-3.273-9.472,0.411-12.919
		c9.856-9.243,20.928-16.933,32.923-22.848c4.517-2.249,10.021-0.375,12.242,4.151c2.24,4.526,0.375,10.011-4.151,12.242
		c-10.377,5.12-19.968,11.785-28.507,19.785C174.233,262.32,171.984,263.142,169.744,263.142"/>
	<g>
		<polygon style="fill:#BE3A2B;" points="147.288,402.285 92.431,347.428 147.288,292.571 202.146,347.428 		"/>
		<polygon style="fill:#BE3A2B;" points="257.003,402.285 202.146,347.428 257.003,292.571 311.86,347.428 		"/>
		<polygon style="fill:#BE3A2B;" points="366.717,402.285 311.86,347.428 366.717,292.571 421.574,347.428 		"/>
	</g>
	<path style="fill:#CFD2CF;" d="M266.59,84.471c-3.465,9.271-15.717,9.271-19.173,0l-15.744-42.167
		C224.844,24,235.312,2.487,253.58,0.21c1.125-0.137,2.267-0.21,3.419-0.21c1.161,0,2.304,0.073,3.429,0.21
		c18.267,2.277,28.727,23.79,21.897,42.094L266.59,84.471z"/>
	<path style="fill:#4C8056;" d="M183.86,201.142L183.86,201.142c48.759,12.187,97.527,12.187,146.286,0v-54.857H183.86V201.142z"/>
	<polygon style="fill:#559E62;" points="202.146,146.285 311.86,146.285 311.86,118.856 202.146,118.856 	"/>
	<polygon style="fill:#E4E5E6;" points="238.717,118.856 275.288,118.856 275.288,82.285 238.717,82.285 	"/>
</g>
<g>
</g>
<g>
</g>
<g>
</g>
<g>
</g>
<g>
</g>
<g>
</g>
<g>
</g>
<g>
</g>
<g>
</g>
<g>
</g>
<g>
</g>
<g>
</g>
<g>
</g>
<g>
</g>
<g>
</g>
</svg>
