<?xml version="1.0" encoding="iso-8859-1"?>
<!-- Generator: Adobe Illustrator 19.0.0, SVG Export Plug-In . SVG Version: 6.00 Build 0)  -->
<svg version="1.1" id="Layer_1" xmlns="http://www.w3.org/2000/svg" xmlns:xlink="http://www.w3.org/1999/xlink" x="0px" y="0px"
	 viewBox="0 0 511.851 511.851" style="enable-background:new 0 0 511.851 511.851;" xml:space="preserve">
<g>
	<path style="fill:#F97B76;" d="M300.628,70.472c0,24.373-19.765,44.138-44.138,44.138s-44.138-19.765-44.138-44.138
		s19.765-44.138,44.138-44.138S300.628,46.099,300.628,70.472"/>
	<g>
		<path style="fill:#BE3A2B;" d="M212.352,70.472c0-19.076,12.173-35.178,29.131-41.34c-13.895-11.847-54.14-26.686-83.5-28.963
			c-7.609-0.583-15.122,2.507-19.809,8.527c-6.135,7.892-10.196,21.725,2.428,44.12c0,0,9.958,14.61,9.958,52.86
			c0,0-1.059,19.129,21.204,24.876c1.624,0.415,4.07,0.706,7,0.883c17.779,1.05,35.469-3.213,51.2-11.564l13.824-7.345
			C225.647,107.044,212.352,90.404,212.352,70.472"/>
		<path style="fill:#BE3A2B;" d="M300.628,70.472c0-19.076-12.173-35.178-29.131-41.34c13.895-11.847,53.01-26.792,82.37-29.06
			c7.609-0.591,15.122,2.507,19.809,8.527c6.135,7.883,10.196,21.716-2.428,44.111c0,0-8.828,14.716-8.828,52.966
			c0,0,1.059,19.129-21.204,24.876c-1.624,0.415-4.07,0.706-7,0.883c-17.779,1.05-35.469-3.213-51.2-11.564l-13.824-7.345
			C287.334,107.044,300.628,90.404,300.628,70.472"/>
	</g>
	<g>
		<path style="fill:#922C25;" d="M255.925,114.609c-4.449,0-8.095-0.856-12.138-2.083l-13.824,7.345
			c-13.506,7.177-28.478,11.096-43.688,11.458l-0.088,0.3l-26.801,53.601l43.573-17.655l8.828,44.138l44.138-88.276V114.609z"/>
		<path style="fill:#922C25;" d="M255.925,114.609c4.449,0,9.225-0.856,13.268-2.083l13.824,7.345
			c13.506,7.177,28.478,11.096,43.688,11.458l0.088,0.3l26.801,53.601l-44.138-17.655l-8.828,44.138l-44.703-88.276V114.609z"/>
	</g>
	<path style="fill:#C19817;" d="M255.925,511.851c34.127,0,61.793-27.666,61.793-61.793H194.132
		C194.132,484.185,221.798,511.851,255.925,511.851"/>
	<path style="fill:#EEC319;" d="M441.794,365.617c-26.862-21.495-85.451-104.801-97.66-183.764l-35.24-14.283l-8.828,44.138
		l-44.138-88.276l-44.138,88.276l-8.828-44.138l-35.249,14.283c-12.2,78.963-71.512,162.569-98.375,184.064
		c-15.351,12.288-28.796,27.419-24.452,49.126c4.167,20.807,23.676,35.01,44.888,35.01h332.332c21.213,0,40.722-14.204,44.888-35.01
		C471.34,393.336,457.145,377.905,441.794,365.617"/>
</g>
<g>
</g>
<g>
</g>
<g>
</g>
<g>
</g>
<g>
</g>
<g>
</g>
<g>
</g>
<g>
</g>
<g>
</g>
<g>
</g>
<g>
</g>
<g>
</g>
<g>
</g>
<g>
</g>
<g>
</g>
</svg>
