<?xml version="1.0" encoding="iso-8859-1"?>
<!-- Generator: Adobe Illustrator 19.0.0, SVG Export Plug-In . SVG Version: 6.00 Build 0)  -->
<svg version="1.1" id="Layer_1" xmlns="http://www.w3.org/2000/svg" xmlns:xlink="http://www.w3.org/1999/xlink" x="0px" y="0px"
	 viewBox="0 0 512 512" style="enable-background:new 0 0 512 512;" xml:space="preserve">
<g>
	<path style="fill:#3B445B;" d="M423.698,512H88.302v-17.655c0-9.754,7.901-17.655,17.655-17.655h300.085
		c9.754,0,17.655,7.901,17.655,17.655V512z"/>
	<path style="fill:#556080;" d="M406.042,476.69H105.958v-26.536c0-4.846,3.928-8.775,8.775-8.775h282.483
		c4.873,0,8.828,3.955,8.828,8.828V476.69z"/>
	<path style="fill:#BE3A2B;" d="M119.777,205.873c5.208-9.569,15.625-20.427,36.167-20.815
		c29.943-0.574,58.606,46.362,68.431,57.529c-7.733,7.954-12.544,18.776-12.544,30.746c0,8.024,2.304,15.439,6.047,21.928
		c0,44.553-60.248,73.931-85.495,48.693c-19.112-19.121-16.331-81.108-17.479-95.241
		C114.216,240.088,115.513,213.703,119.777,205.873"/>
	<g>
		<path style="fill:#922C25;" d="M211.827,282.16c-1.845,0-3.699-0.574-5.288-1.766l-35.31-26.483
			c-3.902-2.922-4.696-8.457-1.766-12.359c2.922-3.893,8.457-4.696,12.359-1.766l35.31,26.483c3.902,2.922,4.696,8.457,1.766,12.359
			C217.159,280.941,214.519,282.16,211.827,282.16"/>
		<path style="fill:#922C25;" d="M176.534,308.642c-2.692,0-5.332-1.218-7.071-3.531c-2.931-3.902-2.136-9.437,1.766-12.359
			l35.31-26.483c3.902-2.94,9.437-2.136,12.359,1.766c2.931,3.902,2.136,9.437-1.766,12.359l-35.31,26.483
			C180.233,308.069,178.379,308.642,176.534,308.642"/>
	</g>
	<path style="fill:#BE3A2B;" d="M392.17,205.873c-5.208-9.569-15.625-20.427-36.167-20.815
		c-29.943-0.565-58.606,46.362-68.431,57.529c7.733,7.954,12.544,19.094,12.544,31.064c0,8.024-2.304,15.122-6.047,21.61
		c0,44.553,60.248,73.931,85.495,48.693c19.112-19.121,16.331-81.108,17.479-95.241C397.731,240.088,396.434,213.711,392.17,205.873
		"/>
	<g>
		<path style="fill:#922C25;" d="M300.12,282.483c-2.692,0-5.332-1.218-7.071-3.531c-2.931-3.902-2.136-9.437,1.766-12.359
			l35.31-26.483c3.902-2.94,9.437-2.136,12.359,1.766c2.931,3.902,2.136,9.437-1.766,12.359l-35.31,26.483
			C303.819,281.909,301.965,282.483,300.12,282.483"/>
		<path style="fill:#922C25;" d="M335.413,308.966c-1.845,0-3.699-0.574-5.288-1.766l-35.31-26.483
			c-3.902-2.922-4.696-8.457-1.766-12.359c2.931-3.893,8.457-4.696,12.359-1.766l35.31,26.483c3.902,2.922,4.696,8.457,1.766,12.359
			C340.745,307.747,338.105,308.966,335.413,308.966"/>
		<path style="fill:#922C25;" d="M319.123,340.511c-14.292-10.434-25.062-26.456-25.062-45.25
			c-7.627,13.215-21.734,22.537-38.091,22.537l35.284,88.276l16.428-27.436l31.576,5.049L319.123,340.511z"/>
		<path style="fill:#922C25;" d="M192.824,340.834c14.292-10.434,25.062-26.456,25.062-45.25
			c7.627,13.215,21.734,22.21,38.091,22.21l-35.284,88.603l-16.428-27.436l-31.576,5.049L192.824,340.834z"/>
	</g>
	<path style="fill:#E6E7E8;" d="M255.974,167.724c-4.882,0-8.828-3.955-8.828-8.828v-35.31c0-4.873,3.946-8.828,8.828-8.828
		c4.882,0,8.828,3.955,8.828,8.828v35.31C264.801,163.769,260.855,167.724,255.974,167.724"/>
	<path style="fill:#F0C419;" d="M255.974,0l-35.31,61.793c-14.045,25.291,2.022,58.642,30.799,61.564
		c1.483,0.15,2.984,0.23,4.511,0.23c1.527,0,3.028-0.079,4.511-0.23c28.778-2.922,44.844-36.273,30.799-61.564L255.974,0z"/>
	<path style="fill:#E57E25;" d="M255.974,70.621l-15.404,26.483c-6.126,10.84,0.883,25.132,13.436,26.386
		c0.644,0.062,1.306,0.097,1.969,0.097c0.662,0,1.324-0.035,1.969-0.097c12.553-1.254,19.562-15.545,13.436-26.386L255.974,70.621z"
		/>
	<g>
		<path style="fill:#FDD7AD;" d="M185.353,167.724v30.023c17.841,14.592,32.538,37.473,39.027,44.844
			c8.015-8.245,19.191-13.074,31.594-13.074c12.403,0,23.578,4.829,31.594,13.074c6.488-7.371,21.186-30.252,39.027-44.844v-30.023
			c0-4.873-3.955-8.828-8.828-8.828H194.18C189.308,158.897,185.353,162.851,185.353,167.724"/>
		<polygon style="fill:#FDD7AD;" points="291.254,406.069 255.97,317.793 220.695,406.396 204.267,378.959 185.349,381.987 
			185.349,441.379 326.591,441.379 326.591,381.661 307.682,378.642 		"/>
	</g>
	<path style="fill:#F97B76;" d="M300.111,273.332c0,24.373-19.765,44.465-44.138,44.465s-44.138-19.765-44.138-44.138
		c0-24.382,19.765-44.138,44.138-44.138S300.111,248.959,300.111,273.332"/>
</g>
<g>
</g>
<g>
</g>
<g>
</g>
<g>
</g>
<g>
</g>
<g>
</g>
<g>
</g>
<g>
</g>
<g>
</g>
<g>
</g>
<g>
</g>
<g>
</g>
<g>
</g>
<g>
</g>
<g>
</g>
</svg>
