<?xml version="1.0" encoding="iso-8859-1"?>
<!-- Generator: Adobe Illustrator 19.0.0, SVG Export Plug-In . SVG Version: 6.00 Build 0)  -->
<svg version="1.1" id="Layer_1" xmlns="http://www.w3.org/2000/svg" xmlns:xlink="http://www.w3.org/1999/xlink" x="0px" y="0px"
	 viewBox="0 0 512 512" style="enable-background:new 0 0 512 512;" xml:space="preserve">
<g>
	<path style="fill:#E6E7E8;" d="M256,167.724c-4.882,0-8.828-3.955-8.828-8.828v-35.31c0-4.873,3.946-8.828,8.828-8.828
		s8.828,3.955,8.828,8.828v35.31C264.828,163.769,260.882,167.724,256,167.724"/>
	<path style="fill:#F0C419;" d="M256,0l-35.31,61.793c-14.045,25.291,2.022,58.642,30.799,61.564c1.483,0.15,2.984,0.23,4.511,0.23
		c1.527,0,3.028-0.079,4.511-0.23c28.778-2.922,44.844-36.273,30.799-61.564L256,0z"/>
	<path style="fill:#E6E7E8;" d="M397.241,229.517c-4.882,0-8.828-3.955-8.828-8.828v-26.483c0-4.873,3.946-8.828,8.828-8.828
		c4.882,0,8.828,3.955,8.828,8.828v26.483C406.069,225.562,402.123,229.517,397.241,229.517"/>
	<path style="fill:#F0C419;" d="M397.241,70.621l-35.31,61.793c-14.045,25.291,2.022,58.642,30.799,61.564
		c1.483,0.15,2.984,0.23,4.511,0.23c1.527,0,3.028-0.079,4.511-0.23c28.778-2.922,44.844-36.273,30.799-61.564L397.241,70.621z"/>
	<path style="fill:#E6E7E8;" d="M114.759,229.517c-4.882,0-8.828-3.955-8.828-8.828v-26.483c0-4.873,3.946-8.828,8.828-8.828
		s8.828,3.955,8.828,8.828v26.483C123.586,225.562,119.64,229.517,114.759,229.517"/>
	<path style="fill:#F0C419;" d="M114.759,70.621l-35.31,61.793c-14.045,25.291,2.022,58.642,30.799,61.564
		c1.483,0.15,2.984,0.23,4.511,0.23s3.028-0.079,4.511-0.23c28.778-2.922,44.844-36.273,30.799-61.564L114.759,70.621z"/>
	<g>
		<path style="fill:#E57E25;" d="M114.759,141.241l-15.404,26.483c-6.126,10.84,0.883,25.132,13.436,26.386
			c0.644,0.062,1.306,0.097,1.969,0.097c0.662,0,1.324-0.035,1.969-0.097c12.553-1.254,19.562-15.545,13.436-26.386L114.759,141.241
			z"/>
		<path style="fill:#E57E25;" d="M256,70.621l-15.404,26.483c-6.126,10.84,0.883,25.132,13.436,26.386
			c0.644,0.062,1.306,0.097,1.969,0.097s1.324-0.035,1.969-0.097c12.553-1.254,19.562-15.545,13.436-26.386L256,70.621z"/>
		<path style="fill:#E57E25;" d="M397.241,141.241l-15.404,26.483c-6.126,10.84,0.883,25.132,13.436,26.386
			c0.644,0.062,1.306,0.097,1.969,0.097c0.662,0,1.324-0.035,1.969-0.097c12.553-1.254,19.562-15.545,13.436-26.386L397.241,141.241
			z"/>
	</g>
	<path style="fill:#3B445B;" d="M512,512H0v-17.655c0-9.754,7.901-17.655,17.655-17.655h476.69c9.754,0,17.655,7.901,17.655,17.655
		V512z"/>
	<path style="fill:#556080;" d="M494.345,476.69H17.655v-26.536c0-4.846,3.928-8.775,8.775-8.775h459.087
		c4.873,0,8.828,3.955,8.828,8.828V476.69z"/>
	<path style="fill:#FAC176;" d="M176.552,176.552v69.12c0,14.345,10.734,27.198,25.062,27.948
		c15.272,0.794,27.904-11.352,27.904-26.447c0,10.726,9.56,19.209,20.621,17.417c8.678-1.412,14.689-9.569,14.689-18.361v-7.883
		c0,9.754,7.901,17.655,17.655,17.655s17.655-7.901,17.655-17.655v43.193c0,8.792,6.012,16.949,14.689,18.361
		c11.061,1.792,20.621-6.691,20.621-17.417V176.552c0-9.754-7.901-17.655-17.655-17.655H194.207
		C184.452,158.897,176.552,166.797,176.552,176.552"/>
	<path style="fill:#FDD7AD;" d="M314.828,299.896c-8.678-1.412-14.689-9.56-14.689-18.361v-43.193
		c0,9.754-7.91,17.655-17.655,17.655c-9.754,0-17.655-7.901-17.655-17.655v7.883c0,8.801-6.012,16.949-14.689,18.361
		c-11.061,1.801-20.621-6.691-20.621-17.417c0,15.104-12.632,27.251-27.904,26.447c-6.356-0.335-11.917-3.125-16.234-7.292v175.051
		h141.241V297.724C323.232,299.693,319.162,300.602,314.828,299.896"/>
	<g>
		<path style="fill:#CCA279;" d="M461.999,335.206c-11.061,1.801-20.621-6.691-20.621-17.417v44.138
			c0,10.726-9.56,19.218-20.621,17.417c-8.677-1.412-14.689-9.56-14.689-18.361v-52.021c0,10.726-9.56,19.218-20.621,17.417
			c-8.677-1.412-14.689-9.56-14.689-18.361v-16.711c0,15.104-12.632,27.251-27.904,26.447c-6.347-0.335-11.917-3.125-16.234-7.292
			v130.913H467.86v-108.35C466.104,334.094,464.135,334.862,461.999,335.206"/>
		<path style="fill:#CCA279;" d="M169.148,300.1c-15.272,0.803-27.904-11.343-27.904-26.447v35.31
			c0,10.726-9.56,19.218-20.621,17.417c-8.686-1.412-14.689-9.569-14.689-18.361V282.48c0,9.754-7.91,17.655-17.655,17.655
			c-9.754,0-17.655-7.901-17.655-17.655v25.538c0,8.792-6.012,16.949-14.698,18.361c-4.326,0.706-8.404-0.203-11.785-2.172v117.169
			h141.241V292.808C181.065,296.966,175.495,299.765,169.148,300.1"/>
	</g>
	<g>
		<path style="fill:#B57D40;" d="M326.621,310.533c4.308,4.149,9.896,6.894,16.234,7.221c15.272,0.803,27.904-11.343,27.904-26.447
			v16.711c0,8.801,6.012,16.949,14.689,18.361c11.061,1.801,20.621-6.691,20.621-17.417v52.021c0,8.801,6.012,16.949,14.689,18.361
			c11.061,1.801,20.621-6.691,20.621-17.417V317.79c0,10.725,9.56,19.218,20.621,17.417c8.678-1.412,14.689-9.56,14.689-18.361
			v-78.504c0-9.746-7.901-17.655-17.655-17.655H335.448v61.793c0,6.471-3.628,12.191-8.828,15.245V310.533z"/>
		<path style="fill:#B57D40;" d="M185.379,266.281c-5.385-5.191-8.828-12.676-8.828-20.604v-24.991H52.974
			c-9.754,0-17.664,7.91-17.664,17.664v70.612c0,10.726,9.56,19.218,20.621,17.417c8.678-1.412,14.689-9.569,14.689-18.361V282.48
			c0,9.754,7.901,17.655,17.655,17.655s17.655-7.901,17.655-17.655v25.538c0,8.792,6.012,16.949,14.689,18.361
			c11.061,1.801,20.621-6.691,20.621-17.417v-35.31c0,15.104,12.632,27.251,27.904,26.447c6.347-0.335,11.917-2.948,16.234-7.106
			V266.281z"/>
	</g>
</g>
<g>
</g>
<g>
</g>
<g>
</g>
<g>
</g>
<g>
</g>
<g>
</g>
<g>
</g>
<g>
</g>
<g>
</g>
<g>
</g>
<g>
</g>
<g>
</g>
<g>
</g>
<g>
</g>
<g>
</g>
</svg>
