<?xml version="1.0" encoding="iso-8859-1"?>
<!-- Generator: Adobe Illustrator 19.0.0, SVG Export Plug-In . SVG Version: 6.00 Build 0)  -->
<svg version="1.1" id="Layer_1" xmlns="http://www.w3.org/2000/svg" xmlns:xlink="http://www.w3.org/1999/xlink" x="0px" y="0px"
	 viewBox="0 0 511.996 511.996" style="enable-background:new 0 0 511.996 511.996;" xml:space="preserve">
<g>
	<path style="fill:#E6E7E8;" d="M225.101,167.72c-4.882,0-8.828-3.955-8.828-8.828v-26.483c0-4.873,3.946-8.828,8.828-8.828
		s8.828,3.955,8.828,8.828v26.483C233.929,163.765,229.983,167.72,225.101,167.72"/>
	<polygon style="fill:#556080;" points="392.825,476.685 57.377,476.685 30.894,432.547 419.308,432.547 	"/>
	<g>
		<polygon style="fill:#3B445B;" points="339.86,511.996 110.343,511.996 92.687,476.685 357.515,476.685 		"/>
		<path style="fill:#3B445B;" d="M481.101,414.892c0,24.373-19.765,44.138-44.138,44.138c-24.373,0-44.138-19.765-44.138-44.138
			c0-24.373,19.765-44.138,44.138-44.138C461.336,370.754,481.101,390.519,481.101,414.892"/>
	</g>
	<path style="fill:#F0C419;" d="M186.751,57.521L225.098,0l38.356,57.521c19.615,29.431,2.251,71.044-32.936,74.62
		c-1.783,0.177-3.593,0.274-5.42,0.274c-1.827,0-3.628-0.097-5.411-0.274C184.491,128.565,167.127,86.952,186.751,57.521"/>
	<path style="fill:#FAC176;" d="M339.86,236.842v-51.465c0-14.627-11.855-26.483-26.483-26.483H136.825
		c-14.627,0-26.483,11.855-26.483,26.483v16.137c0,18.441,13.48,34.913,31.841,36.661c21.063,2.004,38.78-14.504,38.78-35.143
		v42.637c0,14.336,10.734,27.198,25.062,27.948c15.272,0.794,27.904-11.352,27.904-26.447v51.465
		c0,14.336,10.734,27.198,25.062,27.948c15.272,0.794,27.904-11.352,27.904-26.447v-61.793c0,15.095,12.632,27.242,27.904,26.447
		C329.126,264.04,339.86,251.178,339.86,236.842"/>
	<path style="fill:#FDD7AD;" d="M314.801,264.785c-15.272,0.803-27.904-11.343-27.904-26.447v61.793
		c0,15.104-12.641,27.251-27.913,26.447c-14.318-0.75-25.053-13.603-25.053-27.939v-51.474c0,15.104-12.641,27.251-27.913,26.447
		c-14.318-0.75-25.053-13.603-25.053-27.939v-42.646c0,20.648-17.726,37.155-38.78,35.143c-5.208-0.494-9.958-2.278-14.186-4.855
		v199.23h203.035V257.494C326.718,261.651,321.148,264.45,314.801,264.785"/>
	<path style="fill:#E57E25;" d="M225.101,70.616l18.723,18.097c10.346,10.002,10.346,26.2,0,36.202
		c-10.337,9.993-27.11,9.993-37.447,0c-10.346-10.002-10.346-26.2,0-36.202L225.101,70.616z"/>
</g>
<g>
</g>
<g>
</g>
<g>
</g>
<g>
</g>
<g>
</g>
<g>
</g>
<g>
</g>
<g>
</g>
<g>
</g>
<g>
</g>
<g>
</g>
<g>
</g>
<g>
</g>
<g>
</g>
<g>
</g>
</svg>
