<?xml version="1.0" encoding="iso-8859-1"?>
<!-- Generator: Adobe Illustrator 19.0.0, SVG Export Plug-In . SVG Version: 6.00 Build 0)  -->
<svg version="1.1" id="Layer_1" xmlns="http://www.w3.org/2000/svg" xmlns:xlink="http://www.w3.org/1999/xlink" x="0px" y="0px"
	 viewBox="0 0 512 512" style="enable-background:new 0 0 512 512;" xml:space="preserve">
<g>
	<polygon style="fill:#D6CEC5;" points="459.034,180.198 459.034,269.868 326.621,370.759 185.379,370.759 52.966,269.868 
		52.966,180.198 0,229.508 0,512 512,512 512,229.508 	"/>
	<g>
		<polygon style="fill:#B5AFA9;" points="0,512 0,512 0,229.517 185.379,370.759 		"/>
		<polygon style="fill:#B5AFA9;" points="512,512 512,512 512,229.517 326.621,370.759 		"/>
	</g>
	<polygon style="fill:#F7EEE4;" points="459.034,0 52.966,0 52.966,269.868 185.379,370.759 326.621,370.759 459.034,269.868 	"/>
	<polygon style="fill:#559E62;" points="317.793,167.724 194.207,167.724 256,52.966 	"/>
	<polygon style="fill:#84542C;" points="238.345,317.793 273.655,317.793 273.655,264.828 238.345,264.828 	"/>
	<polygon style="fill:#559E62;" points="282.483,167.724 229.517,167.724 176.552,264.828 335.448,264.828 	"/>
	<g>
		<path style="fill:#EEC319;" d="M151.75,132.414h-12.191c-3.946,0-7.142-3.196-7.142-7.15v-12.182c0-3.955,3.196-7.15,7.142-7.15
			h12.191c3.946,0,7.15,3.196,7.15,7.15v12.182C158.9,129.218,155.696,132.414,151.75,132.414"/>
		<path style="fill:#EEC319;" d="M125.267,256h-12.191c-3.946,0-7.142-3.196-7.142-7.15v-12.182c0-3.955,3.196-7.15,7.142-7.15
			h12.191c3.946,0,7.15,3.196,7.15,7.15v12.182C132.417,252.804,129.213,256,125.267,256"/>
		<path style="fill:#EEC319;" d="M398.922,132.414h-12.191c-3.946,0-7.141-3.196-7.141-7.15v-12.182c0-3.955,3.196-7.15,7.141-7.15
			h12.191c3.946,0,7.15,3.196,7.15,7.15v12.182C406.073,129.218,402.868,132.414,398.922,132.414"/>
		<path style="fill:#EEC319;" d="M328.301,61.793h-12.191c-3.946,0-7.142-3.196-7.142-7.15V42.461c0-3.955,3.196-7.15,7.142-7.15
			h12.191c3.946,0,7.15,3.196,7.15,7.15v12.182C335.452,58.598,332.247,61.793,328.301,61.793"/>
		<path style="fill:#EEC319;" d="M390.095,254.319h-12.191c-3.946,0-7.142-3.196-7.142-7.15v-12.182c0-3.955,3.196-7.15,7.142-7.15
			h12.191c3.946,0,7.15,3.196,7.15,7.15v12.182C397.245,251.124,394.04,254.319,390.095,254.319"/>
	</g>
</g>
<g>
</g>
<g>
</g>
<g>
</g>
<g>
</g>
<g>
</g>
<g>
</g>
<g>
</g>
<g>
</g>
<g>
</g>
<g>
</g>
<g>
</g>
<g>
</g>
<g>
</g>
<g>
</g>
<g>
</g>
</svg>
