<?xml version="1.0" encoding="iso-8859-1"?>
<!-- Generator: Adobe Illustrator 19.0.0, SVG Export Plug-In . SVG Version: 6.00 Build 0)  -->
<svg version="1.1" id="Layer_1" xmlns="http://www.w3.org/2000/svg" xmlns:xlink="http://www.w3.org/1999/xlink" x="0px" y="0px"
	 viewBox="0 0 512 512" style="enable-background:new 0 0 512 512;" xml:space="preserve">
<g>
	<path style="fill:#D6CEC5;" d="M474.977,450.207H37.032C16.578,450.207,0,433.629,0,413.184V98.816
		c0-20.445,16.578-37.023,37.032-37.023h437.945c20.454,0,37.023,16.578,37.023,37.023v314.368
		C512,433.629,495.431,450.207,474.977,450.207"/>
	<g>
		<path style="fill:#F7EEE4;" d="M367.08,325.209c-28.531,9.163-72.986-17.814-72.986-56.108l0,0
			c-7.627,13.215-21.742,22.21-38.091,22.21c-16.358,0-30.464-8.995-38.091-22.21l0,0c0,38.294-44.447,65.262-72.986,56.108
			L11.735,440.091c6.63,6.232,15.484,10.116,25.3,10.116H474.98c9.816,0,18.67-3.884,25.3-10.116L367.08,325.209z"/>
		<path style="fill:#F7EEE4;" d="M474.975,61.793H37.03c-10.028,0-19.085,4.025-25.759,10.496l111.051,103.389
			c5.817-8.351,15.969-16.437,33.651-16.772c29.943-0.574,58.606,46.362,68.431,57.529c8.015-8.236,19.191-13.391,31.594-13.391
			c12.412,0,23.578,5.155,31.594,13.391c9.834-11.167,38.497-58.103,68.44-57.529c17.682,0.335,27.833,8.43,33.651,16.781
			L500.734,72.289C494.069,65.818,485.003,61.793,474.975,61.793"/>
	</g>
	<path style="fill:#BE3A2B;" d="M119.804,179.719c5.208-9.569,15.625-20.427,36.167-20.815
		c29.943-0.574,58.606,46.362,68.431,57.529c-7.733,7.954-12.544,18.776-12.544,30.746c0,8.024,2.304,15.439,6.047,21.928
		c0,44.553-60.248,73.931-85.495,48.693c-19.112-19.121-16.331-81.108-17.479-95.241
		C114.243,213.934,115.541,187.558,119.804,179.719"/>
	<g>
		<path style="fill:#922C25;" d="M211.853,256.008c-1.836,0-3.699-0.574-5.288-1.766l-35.31-26.483
			c-3.902-2.922-4.687-8.457-1.766-12.359c2.931-3.911,8.457-4.687,12.359-1.766l35.31,26.483c3.902,2.922,4.687,8.457,1.766,12.359
			C217.185,254.79,214.537,256.008,211.853,256.008"/>
		<path style="fill:#922C25;" d="M176.561,282.491c-2.684,0-5.332-1.218-7.071-3.531c-2.922-3.902-2.136-9.437,1.766-12.359
			l35.31-26.483c3.911-2.913,9.437-2.136,12.359,1.766s2.136,9.437-1.766,12.359l-35.31,26.483
			C180.259,281.917,178.397,282.491,176.561,282.491"/>
	</g>
	<path style="fill:#BE3A2B;" d="M392.196,179.719c-5.208-9.569-15.625-20.427-36.167-20.815
		c-29.943-0.574-58.606,46.362-68.431,57.529c7.733,7.954,12.544,18.776,12.544,30.746c0,8.024-2.304,15.439-6.047,21.928
		c0,44.553,60.248,73.931,85.495,48.693c19.112-19.121,16.331-81.108,17.479-95.241C397.758,213.934,396.46,187.558,392.196,179.719
		"/>
	<g>
		<path style="fill:#922C25;" d="M300.147,256.008c-2.684,0-5.332-1.218-7.071-3.531c-2.922-3.902-2.136-9.437,1.766-12.359
			l35.31-26.483c3.911-2.922,9.437-2.145,12.359,1.766c2.922,3.902,2.136,9.437-1.766,12.359l-35.31,26.483
			C303.845,255.435,301.983,256.008,300.147,256.008"/>
		<path style="fill:#922C25;" d="M335.439,282.491c-1.836,0-3.699-0.574-5.288-1.766l-35.31-26.483
			c-3.902-2.922-4.687-8.457-1.766-12.359c2.931-3.902,8.457-4.679,12.359-1.766l35.31,26.483c3.902,2.922,4.687,8.457,1.766,12.359
			C340.771,281.273,338.123,282.491,335.439,282.491"/>
		<path style="fill:#922C25;" d="M294.093,269.105L294.093,269.105c-7.627,13.215-21.742,22.21-38.091,22.21
			c-16.358,0-30.464-8.995-38.091-22.21l0,0c0,21.822-14.486,39.954-32.203,49.858l-17.982,38.568l31.567-5.049l16.437,27.436
			l40.271-88.602l35.275,88.602l16.437-27.436l31.567,5.049l-20.127-43.176C304.862,303.921,294.093,287.899,294.093,269.105"/>
	</g>
	<path style="fill:#F97B76;" d="M300.138,247.177c0,24.373-19.765,44.138-44.138,44.138s-44.138-19.765-44.138-44.138
		s19.765-44.138,44.138-44.138S300.138,222.804,300.138,247.177"/>
</g>
<g>
</g>
<g>
</g>
<g>
</g>
<g>
</g>
<g>
</g>
<g>
</g>
<g>
</g>
<g>
</g>
<g>
</g>
<g>
</g>
<g>
</g>
<g>
</g>
<g>
</g>
<g>
</g>
<g>
</g>
</svg>
