<?xml version="1.0" encoding="iso-8859-1"?>
<!-- Generator: Adobe Illustrator 19.0.0, SVG Export Plug-In . SVG Version: 6.00 Build 0)  -->
<svg version="1.1" id="Layer_1" xmlns="http://www.w3.org/2000/svg" xmlns:xlink="http://www.w3.org/1999/xlink" x="0px" y="0px"
	 viewBox="0 0 512 512" style="enable-background:new 0 0 512 512;" xml:space="preserve">
<g>
	<path style="fill:#E4E5E6;" d="M428.137,88.276H198.62c-14.627,0-26.483-11.855-26.483-26.483v-35.31
		C172.137,11.855,183.993,0,198.62,0h229.517c14.627,0,26.483,11.855,26.483,26.483v35.31
		C454.62,76.42,442.764,88.276,428.137,88.276"/>
	<g>
		<path style="fill:#C1C4C6;" d="M225.103,97.103c-4.873,0-8.828-3.946-8.828-8.828V70.621c0-4.882,3.955-8.828,8.828-8.828
			s8.828,3.946,8.828,8.828v17.655C233.93,93.158,229.975,97.103,225.103,97.103"/>
		<path style="fill:#C1C4C6;" d="M260.413,97.103c-4.873,0-8.828-3.946-8.828-8.828V70.621c0-4.882,3.955-8.828,8.828-8.828
			c4.873,0,8.828,3.946,8.828,8.828v17.655C269.241,93.158,265.286,97.103,260.413,97.103"/>
		<path style="fill:#C1C4C6;" d="M295.723,97.103c-4.873,0-8.828-3.946-8.828-8.828V70.621c0-4.882,3.955-8.828,8.828-8.828
			s8.828,3.946,8.828,8.828v17.655C304.551,93.158,300.596,97.103,295.723,97.103"/>
		<path style="fill:#C1C4C6;" d="M331.034,97.103c-4.873,0-8.828-3.946-8.828-8.828V70.621c0-4.882,3.955-8.828,8.828-8.828
			s8.828,3.946,8.828,8.828v17.655C339.861,93.158,335.906,97.103,331.034,97.103"/>
		<path style="fill:#C1C4C6;" d="M366.344,97.103c-4.873,0-8.828-3.946-8.828-8.828V70.621c0-4.882,3.955-8.828,8.828-8.828
			c4.873,0,8.828,3.946,8.828,8.828v17.655C375.172,93.158,371.217,97.103,366.344,97.103"/>
		<path style="fill:#C1C4C6;" d="M401.654,97.103c-4.873,0-8.828-3.946-8.828-8.828V70.621c0-4.882,3.955-8.828,8.828-8.828
			c4.882,0,8.828,3.946,8.828,8.828v17.655C410.482,93.158,406.536,97.103,401.654,97.103"/>
	</g>
	<path style="fill:#BE3A2B;" d="M223.145,483.558l170.222-166.665c10.946-10.717,17.117-25.388,17.117-40.713V88.276H216.277
		v127.506L85.823,346.236c-37.923,37.923-37.923,99.399,0,137.322C123.737,521.481,185.221,521.481,223.145,483.558"/>
	<path style="fill:#E4E5E6;" d="M331.034,300.138c0,21.636,8.678,41.225,22.705,55.552l39.627-38.797
		c10.946-10.717,17.117-25.388,17.117-40.713v-55.49C366.6,220.69,331.034,256.256,331.034,300.138"/>
	<g>
		<path style="fill:#C1C4C6;" d="M392.827,0v17.655c0,4.882,3.955,8.828,8.828,8.828c4.882,0,8.828-3.946,8.828-8.828V0H392.827z"/>
		<path style="fill:#C1C4C6;" d="M357.516,0v17.655c0,4.882,3.955,8.828,8.828,8.828c4.873,0,8.828-3.946,8.828-8.828V0H357.516z"/>
		<path style="fill:#C1C4C6;" d="M322.206,0v17.655c0,4.882,3.955,8.828,8.828,8.828s8.828-3.946,8.828-8.828V0H322.206z"/>
		<path style="fill:#C1C4C6;" d="M286.896,0v17.655c0,4.882,3.955,8.828,8.828,8.828s8.828-3.946,8.828-8.828V0H286.896z"/>
		<path style="fill:#C1C4C6;" d="M251.585,0v17.655c0,4.882,3.955,8.828,8.828,8.828c4.873,0,8.828-3.946,8.828-8.828V0H251.585z"/>
		<path style="fill:#C1C4C6;" d="M216.275,0v17.655c0,4.882,3.955,8.828,8.828,8.828s8.828-3.946,8.828-8.828V0H216.275z"/>
	</g>
</g>
<g>
</g>
<g>
</g>
<g>
</g>
<g>
</g>
<g>
</g>
<g>
</g>
<g>
</g>
<g>
</g>
<g>
</g>
<g>
</g>
<g>
</g>
<g>
</g>
<g>
</g>
<g>
</g>
<g>
</g>
</svg>
