<?xml version="1.0" encoding="iso-8859-1"?>
<!-- Generator: Adobe Illustrator 19.0.0, SVG Export Plug-In . SVG Version: 6.00 Build 0)  -->
<svg version="1.1" id="Layer_1" xmlns="http://www.w3.org/2000/svg" xmlns:xlink="http://www.w3.org/1999/xlink" x="0px" y="0px"
	 viewBox="0 0 512.01 512.01" style="enable-background:new 0 0 512.01 512.01;" xml:space="preserve">
<g transform="translate(-1)">
	<g>
		<path style="fill:#BE3A2B;" d="M367.938,170.705v68.233l25.6-25.6l25.6,25.6v-69.35
			C401.807,170.398,384.715,170.825,367.938,170.705"/>
		<path style="fill:#BE3A2B;" d="M100.687,124.699l-26.863,58.991l33.886-12.766l12.757,33.877l29.286-64.307
			C133.071,135.766,116.738,130.45,100.687,124.699"/>
		<path style="fill:#BE3A2B;" d="M224.218,157.604l-9.361,65.553l28.962-21.717l21.717,28.962l9.335-65.331
			C257.678,163.091,240.807,160.582,224.218,157.604"/>
	</g>
	<g>
		<path style="fill:#71C084;" d="M146.072,375.505v59.699l-25.6-17.067l-25.6,17.067v-60.817
			C112.203,375.198,129.295,375.625,146.072,375.505"/>
		<path style="fill:#71C084;" d="M413.323,329.498l26.863,58.991L406.3,375.723L393.543,409.6l-29.286-64.307
			C380.939,340.565,397.272,335.249,413.323,329.498"/>
		<path style="fill:#71C084;" d="M289.792,362.404l9.361,65.553l-28.962-21.717l-21.717,28.962l-9.335-65.331
			C256.333,367.891,273.203,365.382,289.792,362.404"/>
	</g>
	<g>
		<path style="fill:#556080;" d="M373.122,179.456c-133.299,0-254.413-28.629-367.471-86.528c-4.198-2.15-5.854-7.287-3.703-11.486
			c2.142-4.19,7.279-5.837,11.486-3.703c146.219,74.871,306.475,99.721,489.941,75.938c4.693-0.64,8.951,2.679,9.566,7.364
			c0.597,4.668-2.697,8.951-7.373,9.557C460.085,176.495,415.959,179.456,373.122,179.456"/>
		<path style="fill:#556080;" d="M140.889,384.256c-42.846,0-86.946-2.961-132.446-8.858c-4.676-0.606-7.97-4.89-7.373-9.557
			c0.614-4.685,4.847-8.004,9.566-7.364c183.441,23.765,343.731-1.058,489.941-75.938c4.216-2.159,9.336-0.486,11.486,3.703
			c2.15,4.198,0.495,9.335-3.703,11.486C395.31,355.627,274.171,384.256,140.889,384.256"/>
	</g>
</g>
<g>
</g>
<g>
</g>
<g>
</g>
<g>
</g>
<g>
</g>
<g>
</g>
<g>
</g>
<g>
</g>
<g>
</g>
<g>
</g>
<g>
</g>
<g>
</g>
<g>
</g>
<g>
</g>
<g>
</g>
</svg>
