<?xml version="1.0" encoding="iso-8859-1"?>
<!-- Generator: Adobe Illustrator 19.0.0, SVG Export Plug-In . SVG Version: 6.00 Build 0)  -->
<svg version="1.1" id="Layer_1" xmlns="http://www.w3.org/2000/svg" xmlns:xlink="http://www.w3.org/1999/xlink" x="0px" y="0px"
	 viewBox="0 0 512 512" style="enable-background:new 0 0 512 512;" xml:space="preserve">
<g>
	<g>
		<path style="fill:#F0C419;" d="M150.069,17.655c-14.601,0-26.483,11.882-26.483,26.483s11.882,26.483,26.483,26.483l86.625-0.097
			C206.292,37.553,174.071,17.655,150.069,17.655L150.069,17.655z M150.078,88.276c-24.346,0-44.147-19.8-44.147-44.138
			S125.731,0,150.069,0c32.971,0,75.132,27.577,112.772,73.754c2.154,2.639,2.595,6.285,1.13,9.366
			c-1.457,3.081-4.555,5.041-7.962,5.041L150.078,88.276z"/>
		<path style="fill:#F0C419;" d="M275.302,70.526l86.634,0.097c14.601,0,26.474-11.882,26.474-26.483
			c0-14.61-11.873-26.483-26.483-26.483C337.933,17.658,305.704,37.555,275.302,70.526 M361.927,88.279l-105.94-0.115
			c-3.399,0-6.506-1.969-7.962-5.041c-1.465-3.081-1.015-6.727,1.13-9.366c37.65-46.177,79.801-73.754,112.772-73.754
			c24.338,0,44.138,19.8,44.138,44.138S386.264,88.279,361.927,88.279"/>
	</g>
	<path style="fill:#BE3A2B;" d="M494.345,123.586v-35.31c0-9.754-7.901-17.655-17.655-17.655H35.31
		c-9.754,0-17.655,7.901-17.655,17.655v35.31c0,9.754,7.901,17.655,17.655,17.655H476.69
		C486.444,141.241,494.345,133.341,494.345,123.586"/>
	<path style="fill:#922C25;" d="M44.138,141.241V476.69c0,19.5,15.81,35.31,35.31,35.31h353.103c19.5,0,35.31-15.81,35.31-35.31
		V141.241H44.138z"/>
	<g>
		<polygon style="fill:#F0C419;" points="211.862,512 300.138,512 300.138,141.233 211.862,141.233 		"/>
		<polygon style="fill:#F0C419;" points="44.138,282.483 211.862,282.483 211.862,229.517 44.138,229.517 		"/>
		<polygon style="fill:#F0C419;" points="300.138,282.483 467.862,282.483 467.862,229.517 300.138,229.517 		"/>
		<polygon style="fill:#F0C419;" points="44.138,423.724 211.862,423.724 211.862,370.759 44.138,370.759 		"/>
		<polygon style="fill:#F0C419;" points="300.138,423.724 467.862,423.724 467.862,370.759 300.138,370.759 		"/>
		<polygon style="fill:#F0C419;" points="185.379,141.241 326.621,141.241 326.621,70.506 185.379,70.506 		"/>
	</g>
</g>
<g>
</g>
<g>
</g>
<g>
</g>
<g>
</g>
<g>
</g>
<g>
</g>
<g>
</g>
<g>
</g>
<g>
</g>
<g>
</g>
<g>
</g>
<g>
</g>
<g>
</g>
<g>
</g>
<g>
</g>
</svg>
