<?xml version="1.0" encoding="iso-8859-1"?>
<!-- Generator: Adobe Illustrator 19.0.0, SVG Export Plug-In . SVG Version: 6.00 Build 0)  -->
<svg version="1.1" id="Layer_1" xmlns="http://www.w3.org/2000/svg" xmlns:xlink="http://www.w3.org/1999/xlink" x="0px" y="0px"
	 viewBox="0 0 503.351 503.351" style="enable-background:new 0 0 503.351 503.351;" xml:space="preserve">
<g>
	<path style="fill:#BE3A2B;" d="M387.063,144.057c-2.38,7.249-5.47,13.474-9.629,17.633c-15.055,15.046-42.262,10.941-62.257-4.114
		c0.26,0.198,0.494,0.422,0.755,0.611l20.489,43.933l-32.13-5.138l-16.716,27.908l-35.894-89.825l-40.987,89.825l-16.716-27.908
		l-32.121,5.138l18.297-39.244c0.368-0.207,0.719-0.476,1.096-0.692c-18.989,11.111-41.957,12.872-55.323-0.494
		c-4.168-4.159-7.258-10.384-9.638-17.633H54.065v323.359c0,19.851,16.079,35.93,35.93,35.93h323.368
		c19.842,0,35.93-16.079,35.93-35.93V144.057H387.063z"/>
	<path style="fill:#EEC319;" d="M113.09,21.186c5.3-9.737,15.899-20.785,36.801-21.181c30.468-0.584,59.635,47.176,69.632,58.539
		c-7.869,8.093-12.764,19.106-12.764,31.286c0,8.165,2.344,15.71,6.153,22.312c0,45.334-61.305,75.228-86.995,49.547
		c-19.447-19.456-16.618-82.531-17.785-96.912C107.431,56.002,108.751,29.162,113.09,21.186"/>
	<g>
		<path style="fill:#C19817;" d="M206.754,98.807c-1.868,0-3.764-0.584-5.381-1.796l-35.93-26.947
			c-3.97-2.973-4.77-8.605-1.796-12.575c2.973-3.97,8.605-4.761,12.575-1.796l35.93,26.947c3.97,2.973,4.77,8.605,1.796,12.575
			C212.18,97.567,209.485,98.807,206.754,98.807"/>
		<path style="fill:#C19817;" d="M170.842,125.754c-2.731,0-5.425-1.24-7.195-3.593c-2.973-3.97-2.174-9.602,1.796-12.575
			l35.93-26.947c3.988-2.973,9.602-2.174,12.575,1.796c2.973,3.97,2.174,9.602-1.796,12.575l-35.93,26.947
			C174.606,125.17,172.711,125.754,170.842,125.754"/>
	</g>
	<path style="fill:#EEC319;" d="M390.26,21.186c-5.3-9.737-15.899-20.785-36.801-21.181c-30.469-0.584-59.635,47.176-69.632,58.539
		c7.869,8.093,12.764,19.106,12.764,31.286c0,8.165-2.344,15.71-6.153,22.312c0,45.334,61.305,75.228,86.995,49.547
		c19.447-19.456,16.618-82.531,17.785-96.912C395.919,56.002,394.599,29.162,390.26,21.186"/>
	<g>
		<path style="fill:#C19817;" d="M296.597,98.807c-2.731,0-5.425-1.24-7.195-3.593c-2.973-3.97-2.174-9.602,1.796-12.575
			l35.93-26.938c3.988-2.973,9.602-2.165,12.575,1.796c2.973,3.97,2.174,9.602-1.797,12.575l-35.93,26.938
			C300.36,98.223,298.465,98.807,296.597,98.807"/>
		<path style="fill:#C19817;" d="M332.508,125.763c-1.868,0-3.764-0.584-5.38-1.796l-35.93-26.956
			c-3.97-2.973-4.77-8.605-1.796-12.584c2.973-3.961,8.614-4.761,12.575-1.788l35.93,26.956c3.97,2.973,4.77,8.605,1.797,12.584
			C337.934,124.524,335.239,125.763,332.508,125.763"/>
		<path style="fill:#C19817;" d="M290.436,112.14L290.436,112.14c-7.761,13.447-22.124,22.6-38.759,22.6
			c-16.645,0-30.998-9.153-38.759-22.6l0,0c0,22.205-14.74,40.655-32.768,50.733l-18.297,39.244l32.121-5.138l16.725,27.917
			l40.978-90.157l35.894,90.157l16.725-27.917l32.121,5.138l-20.48-43.933C301.395,147.567,290.436,131.264,290.436,112.14"/>
	</g>
	<g>
		<path style="fill:#922C25;" d="M108.136,64.781c-0.036-0.422-0.036-1.06-0.063-1.563H45.079c-9.926,0-17.965,8.039-17.965,17.965
			v44.912c0,9.917,8.039,17.965,17.965,17.965h71.213C107.543,117.419,109.052,76.09,108.136,64.781"/>
		<path style="fill:#922C25;" d="M458.272,63.215h-62.994c-0.027,0.503-0.027,1.141-0.063,1.563
			c-0.916,11.309,0.593,52.637-8.156,79.279h71.213c9.926,0,17.965-8.039,17.965-17.965V81.18
			C476.237,71.254,468.197,63.215,458.272,63.215"/>
		<polygon style="fill:#922C25;" points="287.575,224.895 251.672,135.07 210.694,224.895 206.759,218.328 206.759,503.351 
			296.584,503.351 296.584,209.849 		"/>
	</g>
	<path style="fill:#F2D37C;" d="M296.588,89.829c0,24.801-20.112,44.912-44.912,44.912s-44.912-20.112-44.912-44.912
		s20.112-44.912,44.912-44.912S296.588,65.028,296.588,89.829"/>
</g>
<g>
</g>
<g>
</g>
<g>
</g>
<g>
</g>
<g>
</g>
<g>
</g>
<g>
</g>
<g>
</g>
<g>
</g>
<g>
</g>
<g>
</g>
<g>
</g>
<g>
</g>
<g>
</g>
<g>
</g>
</svg>
