<?xml version="1.0" encoding="iso-8859-1"?>
<!-- Generator: Adobe Illustrator 19.0.0, SVG Export Plug-In . SVG Version: 6.00 Build 0)  -->
<svg version="1.1" id="Layer_1" xmlns="http://www.w3.org/2000/svg" xmlns:xlink="http://www.w3.org/1999/xlink" x="0px" y="0px"
	 viewBox="0 0 512.007 512.007" style="enable-background:new 0 0 512.007 512.007;" xml:space="preserve">
<g>
	<path style="fill:#EEC319;" d="M174.858,337.15L174.858,337.15c-13.736-13.736-13.736-36.202,0-49.938l112.357-112.358
		c13.736-13.727,36.202-13.727,49.938,0l0,0c13.727,13.736,13.727,36.202,0,49.938L224.795,337.15
		C211.06,350.886,188.593,350.886,174.858,337.15"/>
	<g>
		<path style="fill:#BE3A2B;" d="M340.495,291.314c10.152,13.789,9.119,33.377-3.346,45.833
			c-12.456,12.465-32.044,13.497-45.833,3.346v153.856h188.716c7.91,0,14.318-6.409,14.318-14.318V291.314H340.495z"/>
		<path style="fill:#BE3A2B;" d="M291.315,17.659v153.856c13.789-10.152,33.377-9.119,45.833,3.346
			c12.465,12.456,13.497,32.035,3.346,45.833h153.856V31.977c0-7.91-6.409-14.318-14.318-14.318H291.315z"/>
		<path style="fill:#BE3A2B;" d="M174.858,174.857c12.456-12.456,32.044-13.489,45.833-3.346V17.655H31.974
			c-7.91,0-14.318,6.409-14.318,14.318V220.69h153.856C161.369,206.901,162.402,187.313,174.858,174.857"/>
		<path style="fill:#BE3A2B;" d="M174.858,337.15c-12.456-12.456-13.489-32.044-3.346-45.833H17.656v188.716
			c0,7.91,6.409,14.318,14.318,14.318h188.716V340.496C206.902,350.639,187.313,349.606,174.858,337.15"/>
	</g>
	<g>
		<path style="fill:#24AE5F;" d="M498.085,220.693h-157.59c-1.042,1.412-2.074,2.825-3.346,4.096l-31.206,31.214l31.206,31.214
			c1.271,1.271,2.304,2.684,3.346,4.096h157.59c7.689,0,13.921-6.232,13.921-13.921v-42.778
			C512.006,226.925,505.774,220.693,498.085,220.693"/>
		<path style="fill:#24AE5F;" d="M174.858,224.794c-1.271-1.271-2.304-2.692-3.346-4.096H13.922
			c-7.689,0-13.921,6.223-13.921,13.912v42.787c0,7.689,6.232,13.921,13.921,13.921h157.59c1.042-1.412,2.074-2.834,3.346-4.105
			l31.214-31.206L174.858,224.794z"/>
		<path style="fill:#24AE5F;" d="M224.794,174.857l31.214,31.214l31.206-31.214c1.271-1.271,2.692-2.304,4.105-3.346V13.921
			C291.319,6.232,285.087,0,277.398,0h-42.787c-7.689,0-13.912,6.232-13.912,13.921v157.59
			C222.102,172.553,223.523,173.586,224.794,174.857"/>
		<path style="fill:#24AE5F;" d="M287.214,337.15L256,305.936l-31.206,31.214c-1.271,1.271-2.692,2.304-4.105,3.346v157.59
			c0,7.689,6.232,13.921,13.921,13.921h42.787c7.689,0,13.912-6.232,13.912-13.921v-157.59
			C289.907,339.454,288.486,338.421,287.214,337.15"/>
	</g>
	<g>
		<path style="fill:#C19817;" d="M206.068,256.004l49.938-49.938l-31.214-31.206c-13.727-13.736-36.202-13.736-49.938,0
			c-13.727,13.727-13.727,36.202,0,49.929L206.068,256.004z"/>
		<path style="fill:#C19817;" d="M305.941,256.004l-49.938,49.938l31.214,31.206c13.727,13.736,36.202,13.736,49.938,0
			c13.727-13.727,13.727-36.202,0-49.929L305.941,256.004z"/>
	</g>
	<g>
		<polygon style="fill:#EEC319;" points="220.694,144.9 220.694,119.936 118.418,17.66 93.453,17.66 		"/>
		<path style="fill:#EEC319;" d="M30.31,17.826c-6.559,0.768-11.714,5.923-12.482,12.482l151.684,151.684
			c1.483-2.534,3.178-4.97,5.35-7.133c2.163-2.172,4.599-3.866,7.133-5.35L30.31,17.826z"/>
		<polygon style="fill:#EEC319;" points="17.66,118.418 119.936,220.694 144.9,220.694 17.66,93.453 		"/>
		<polygon style="fill:#EEC319;" points="291.315,119.934 291.315,144.899 418.556,17.658 393.591,17.658 		"/>
		<path style="fill:#EEC319;" d="M481.698,17.826L330.014,169.511c2.534,1.483,4.97,3.178,7.133,5.35
			c2.172,2.163,3.867,4.599,5.35,7.133L494.181,30.309C493.413,23.75,488.257,18.594,481.698,17.826"/>
		<polygon style="fill:#EEC319;" points="392.074,220.693 494.35,118.417 494.35,93.452 367.109,220.693 		"/>
		<polygon style="fill:#EEC319;" points="494.349,418.556 494.349,393.591 392.073,291.315 367.108,291.315 		"/>
		<path style="fill:#EEC319;" d="M342.493,330.01c-1.474,2.534-3.169,4.97-5.341,7.142c-2.172,2.172-4.608,3.866-7.142,5.341
			l151.684,151.684c6.559-0.768,11.714-5.923,12.482-12.482L342.493,330.01z"/>
		<polygon style="fill:#EEC319;" points="291.315,392.073 393.591,494.349 418.556,494.349 291.315,367.108 		"/>
		<polygon style="fill:#EEC319;" points="17.66,393.589 17.66,418.554 144.9,291.313 119.936,291.313 		"/>
		<path style="fill:#EEC319;" d="M174.858,337.15c-2.172-2.172-3.866-4.608-5.341-7.142L17.824,481.702
			c0.777,6.55,5.932,11.705,12.482,12.482l151.693-151.693C179.466,341.017,177.029,339.322,174.858,337.15"/>
		<polygon style="fill:#EEC319;" points="118.419,494.348 220.695,392.072 220.695,367.108 93.454,494.348 		"/>
	</g>
</g>
<g>
</g>
<g>
</g>
<g>
</g>
<g>
</g>
<g>
</g>
<g>
</g>
<g>
</g>
<g>
</g>
<g>
</g>
<g>
</g>
<g>
</g>
<g>
</g>
<g>
</g>
<g>
</g>
<g>
</g>
</svg>
