<?xml version="1.0" encoding="iso-8859-1"?>
<!-- Generator: Adobe Illustrator 19.0.0, SVG Export Plug-In . SVG Version: 6.00 Build 0)  -->
<svg version="1.1" id="Layer_1" xmlns="http://www.w3.org/2000/svg" xmlns:xlink="http://www.w3.org/1999/xlink" x="0px" y="0px"
	 viewBox="0 0 511.998 511.998" style="enable-background:new 0 0 511.998 511.998;" xml:space="preserve">
<g>
	<path style="fill:#84542C;" d="M441.378,406.067c0,82.044-82.997,105.931-185.379,105.931S70.62,488.111,70.62,406.067
		c0-58.5,82.997-105.931,185.379-105.931S441.378,347.567,441.378,406.067"/>
	<path style="fill:#A46F3E;" d="M239.677,300.607c0.45-0.026,0.892-0.088,1.342-0.106c4.237-0.283,8.519-0.362,12.844-0.362h4.273
		c4.326,0,8.598,0.079,12.826,0.353c0.503,0.026,0.989,0.088,1.483,0.115c54.343,2.737,101.809,18.882,132.511,42.593
		l-7.654-105.834c-6.4-69.438-66.737-122.606-139.043-122.606h-4.52c-72.307,0-132.643,53.169-139.043,122.598L107.042,343.2
		C137.762,319.471,185.29,303.326,239.677,300.607"/>
	<g>
		<path style="fill:#E5CCAA;" d="M454.828,78.909l-44.959-72.06c-5.244-7.212-15.254-9.004-22.678-4.052
			c-7.389,4.917-9.604,14.777-5.032,22.396l40.766,55.393c3.169,4.299-2.251,9.666-6.524,6.462l-66.728-50.052
			c-10.505-5.252-22.855,2.383-22.855,14.124c0,5.985,3.381,11.449,8.73,14.124l32.936,16.949
			c13.497,6.947,15.21,25.565,3.213,34.86l-30.323,24.038c10.69,7.583,20.259,16.552,28.337,26.721l79.854-57.909
			C459.709,102.885,462.084,88.884,454.828,78.909"/>
		<path style="fill:#E5CCAA;" d="M170.624,141.09l-30.323-24.038c-11.997-9.295-10.284-27.913,3.213-34.86l32.936-16.949
			c5.35-2.675,8.73-8.139,8.73-14.124c0-11.741-12.35-19.377-22.855-14.124L95.598,87.047c-4.273,3.204-9.693-2.163-6.524-6.462
			l40.766-55.393c4.573-7.618,2.348-17.479-5.032-22.396c-7.424-4.952-17.434-3.16-22.678,4.052l-44.959,72.06
			c-7.256,9.975-4.882,23.976,5.261,31.002l79.854,57.9C150.364,157.641,159.933,148.673,170.624,141.09"/>
	</g>
	<g>
		<path style="fill:#6CA1E9;" d="M229.516,238.343c0,14.627-11.855,26.483-26.483,26.483s-26.483-11.855-26.483-26.483
			s11.855-26.483,26.483-26.483S229.516,223.716,229.516,238.343"/>
		<path style="fill:#6CA1E9;" d="M335.447,238.343c0,14.627-11.855,26.483-26.483,26.483s-26.483-11.855-26.483-26.483
			s11.855-26.483,26.483-26.483S335.447,223.716,335.447,238.343"/>
	</g>
	<g>
		<path style="fill:#A46F3E;" d="M203.033,485.516c-17.576,0-44.138-14.08-44.138-35.31c0-4.873,3.955-8.828,8.828-8.828
			c4.873,0,8.828,3.955,8.828,8.828c0,8.527,15.545,17.655,26.483,17.655c29.29,0,44.138-14.848,44.138-44.138
			c0-4.873,3.955-8.828,8.828-8.828c4.873,0,8.828,3.955,8.828,8.828C264.826,462.996,242.307,485.516,203.033,485.516"/>
		<path style="fill:#A46F3E;" d="M308.964,485.516c-39.274,0-61.793-22.519-61.793-61.793c0-4.873,3.955-8.828,8.828-8.828
			c4.873,0,8.828,3.955,8.828,8.828c0,29.29,14.848,44.138,44.138,44.138c10.937,0,26.483-9.128,26.483-17.655
			c0-4.873,3.955-8.828,8.828-8.828c4.873,0,8.828,3.955,8.828,8.828C353.102,471.436,326.54,485.516,308.964,485.516"/>
	</g>
	<g>
		<path style="fill:#84542C;" d="M282.49,203.033c-2.684,0-5.332-1.218-7.071-3.531c-2.922-3.902-2.136-9.437,1.766-12.359
			l39.009-29.255L373.547,177c4.626,1.545,7.133,6.541,5.588,11.167c-1.545,4.626-6.532,7.15-11.167,5.588l-48.578-16.199
			l-31.612,23.711C286.189,202.459,284.327,203.033,282.49,203.033"/>
		<path style="fill:#84542C;" d="M229.507,203.033c-1.836,0-3.699-0.574-5.288-1.766l-31.612-23.711l-48.578,16.199
			c-4.643,1.562-9.622-0.962-11.167-5.588c-1.545-4.626,0.962-9.622,5.588-11.167l57.353-19.112l39.009,29.255
			c3.902,2.922,4.687,8.457,1.766,12.359C234.839,201.815,232.191,203.033,229.507,203.033"/>
		<path style="fill:#84542C;" d="M487.279,161.337c-9.843-2.913-34.039-5.058-63.559,6.382l-44.129,15.272
			c9.587,16.269,15.89,34.622,17.717,54.378l0.945,13.109l29.758,9.41c35.302,15.819,51.871-8.448,75.238-39.186
			C514.697,205.633,519.756,170.941,487.279,161.337"/>
		<path style="fill:#84542C;" d="M114.693,237.361c1.818-19.747,8.13-38.109,17.708-54.369L88.272,167.72
			c-29.511-11.449-53.716-9.295-63.55-6.382c-32.486,9.604-27.418,44.297-15.969,59.366c23.367,30.738,39.936,55.005,75.229,39.186
			l29.767-9.41L114.693,237.361z"/>
	</g>
	<path style="fill:#BE3A2B;" d="M224.185,335.447h63.629c11.679,0,21.151,9.472,21.151,21.151v7.759
		c0,4.175-1.236,8.254-3.549,11.732l-25.485,38.215c-3.919,5.888-10.522,9.419-17.593,9.419h-12.676
		c-7.071,0-13.674-3.531-17.593-9.419l-25.485-38.215c-2.313-3.478-3.549-7.556-3.549-11.732v-7.759
		C203.034,344.919,212.506,335.447,224.185,335.447"/>
	<g>
		<path style="fill:#FFFFFF;" d="M308.964,229.516c0,4.873-3.955,8.828-8.828,8.828s-8.828-3.955-8.828-8.828
			s3.955-8.828,8.828-8.828S308.964,224.643,308.964,229.516"/>
		<path style="fill:#FFFFFF;" d="M203.033,229.516c0,4.873-3.955,8.828-8.828,8.828c-4.873,0-8.828-3.955-8.828-8.828
			s3.955-8.828,8.828-8.828C199.079,220.688,203.033,224.643,203.033,229.516"/>
	</g>
</g>
<g>
</g>
<g>
</g>
<g>
</g>
<g>
</g>
<g>
</g>
<g>
</g>
<g>
</g>
<g>
</g>
<g>
</g>
<g>
</g>
<g>
</g>
<g>
</g>
<g>
</g>
<g>
</g>
<g>
</g>
</svg>
